<svg xmlns="http://www.w3.org/2000/svg" viewBox="0 0 1517.29 1850.16"><defs><style>.cls-1{fill:none;stroke:#000;stroke-linecap:round;stroke-miterlimit:10;stroke-width:50px;}</style></defs><title>Asset 2</title><g id="Layer_2" data-name="Layer 2"><g id="Layer_2-2" data-name="Layer 2"><path class="cls-1" d="M775.84,270.22s-64,1196-276,1552"/><path class="cls-1" d="M270.84,48.22s-376,27-198,222C191.2,399.88,360.4,330.14,460.5,268.85a621.35,621.35,0,0,0,102.16-78.52c75.22-71.1,367.14-305.64,715.18-46.11,405,302,112,553,112,553s-269,251-878,127"/><path class="cls-1" d="M500.34,1345.72s-207-138,58-255c169.63-74.89,289.27-59.64,353.41-39,57.75,18.62,96.15,74.11,91.34,134.6-4.93,62.06-55.42,139.84-236.58,203.87a7.35,7.35,0,0,0-4.41,9.58c20,51.45,142.08,367,140.24,400.92-2,37-283,21-283,21"/></g></g></svg>